# xmcd
#
# Track frame offsets: 
#        150
#        17530
#        33775
#        57872
#        68055
#        86032
#        109952
#        130405
#        146757
#        162950
#        168157
#        208375
#        249945
#
# Disc length: 4092 seconds
#
# Revision: 0
# Processed by: cddbd v1.5.2PL0 Copyright (c) Steve Scherf et al.
# Submitted via: ExactAudioCopy v1.0b1
#
DISCID=b10ffa0d
DTITLE=Marvin Gaye - Marvin Gaye Live
DYEAR=1998
DGENRE=Soul
TTITLE0=Heard It Through the Grapevine
TTITLE1=Come Get To This
TTITLE2=Lets Get It On
TTITLE3=God Is My Friend
TTITLE4=Whats Going On
TTITLE5=Inner City Blues Make Me Wanna Holler
TTITLE6=Joy
TTITLE7=Aint Nothing Like the Real Thing
TTITLE8=Heaven Must Have Sent You
TTITLE9=if This World Were Mine
TTITLE10=Rockin After Midnight
TTITLE11=Distant Lover
TTITLE12=Sexual Healing
EXTD=
EXTT0=
EXTT1=
EXTT2=
EXTT3=
EXTT4=
EXTT5=
EXTT6=
EXTT7=
EXTT8=
EXTT9=
EXTT10=
EXTT11=
EXTT12=
PLAYORDER=
